<svg width="46" height="46" viewBox="0 0 46 46" fill="none" xmlns="http://www.w3.org/2000/svg">
<path d="M9.98344 24.9167H31.3926L22.0393 34.27C21.2918 35.0175 21.2918 36.2442 22.0393 36.9917C22.7868 37.7392 23.9943 37.7392 24.7418 36.9917L37.3726 24.3608C38.1201 23.6133 38.1201 22.4059 37.3726 21.6583L24.7609 9.00835C24.4028 8.64945 23.9167 8.44775 23.4097 8.44775C22.9027 8.44775 22.4165 8.64945 22.0584 9.00835C21.3109 9.75585 21.3109 10.9634 22.0584 11.7109L31.3926 21.0834H9.98344C8.92927 21.0834 8.06677 21.9458 8.06677 23C8.06677 24.0542 8.92927 24.9167 9.98344 24.9167Z" fill="#9A1558"/>
</svg>
