<svg width="77" height="19" viewBox="0 0 77 19" fill="none" xmlns="http://www.w3.org/2000/svg">
<path d="M9.802 14.464L10.894 17.324C10.062 17.922 8.84 18.208 7.592 18.208C4.29 18.208 2.366 16.518 2.366 13.19V7.444H0.208V4.324H2.366V0.918H6.422V4.324H9.906V7.444H6.422V13.138C6.422 14.334 7.072 14.984 8.164 14.984C8.762 14.984 9.36 14.802 9.802 14.464ZM26.4412 11.058C26.4412 11.37 26.3892 11.812 26.3632 12.15H15.7812C16.1712 13.892 17.6532 14.958 19.7852 14.958C21.2672 14.958 22.3332 14.516 23.2952 13.606L25.4532 15.946C24.1532 17.428 22.2032 18.208 19.6812 18.208C14.8452 18.208 11.6992 15.166 11.6992 11.006C11.6992 6.82 14.8972 3.804 19.1612 3.804C23.2692 3.804 26.4412 6.56 26.4412 11.058ZM19.1872 6.872C17.3412 6.872 16.0152 7.99 15.7292 9.784H22.6192C22.3332 8.016 21.0072 6.872 19.1872 6.872ZM34.4027 3.804C38.6667 3.804 41.1367 5.78 41.1367 10.018V18H37.3407V16.258C36.5867 17.532 35.1307 18.208 33.0767 18.208C29.8007 18.208 27.8507 16.388 27.8507 13.97C27.8507 11.5 29.5927 9.784 33.8567 9.784H37.0807C37.0807 8.042 36.0407 7.028 33.8567 7.028C32.3747 7.028 30.8407 7.522 29.8267 8.328L28.3707 5.494C29.9047 4.402 32.1667 3.804 34.4027 3.804ZM34.0907 15.478C35.4427 15.478 36.6127 14.854 37.0807 13.58V12.15H34.2987C32.4007 12.15 31.8027 12.852 31.8027 13.788C31.8027 14.802 32.6607 15.478 34.0907 15.478ZM62.7215 3.804C66.0495 3.804 68.4415 5.728 68.4415 9.992V18H64.3855V10.616C64.3855 8.354 63.3715 7.314 61.7335 7.314C59.9135 7.314 58.6395 8.484 58.6395 10.98V18H54.5835V10.616C54.5835 8.354 53.6215 7.314 51.9315 7.314C50.1375 7.314 48.8635 8.484 48.8635 10.98V18H44.8075V4.012H48.6815V5.624C49.7215 4.428 51.2815 3.804 53.0755 3.804C55.0255 3.804 56.6895 4.558 57.6775 6.092C58.7955 4.662 60.6155 3.804 62.7215 3.804Z" fill="white"/>
<path d="M73.6111 18.208C72.2071 18.208 71.0891 17.142 71.0891 15.66C71.0891 14.152 72.2071 13.164 73.6111 13.164C75.0151 13.164 76.1331 14.152 76.1331 15.66C76.1331 17.142 75.0151 18.208 73.6111 18.208Z" fill="#9A1558"/>
</svg>
